<?xml version="1.0" standalone="no"?><svg xmlns:xlink="http://www.w3.org/1999/xlink" xmlns="http://www.w3.org/2000/svg" viewBox="0 0 1000 750.0048231821427" preserveAspectRatio="xMaxYMax slice"><g transform="scale(1.2057955356626089)"><rect x="0" y="0" width="829.3333333333334" height="622" fill="#ffffff"/><path d="M 0 69.11 A 69.11 69.11 0 0 1  69.11 138.22 L 0 69.11 A 69.11 69.11 0 0 0 69.11 138.22" fill="#fef9fb"/><path d="M 207.33 69.11 A 69.11 69.11 0 0 1  276.44 138.22 L 207.33 69.11 A 69.11 69.11 0 0 0 276.44 138.22" fill="#fef8fa"/><path d="M 760.22 69.11 A 69.11 69.11 0 0 1  829.33 138.22 L 760.22 69.11 A 69.11 69.11 0 0 0 829.33 138.22" fill="#fff8fd"/><path d="M 69.11 138.22 A 69.11 69.11 0 0 1  138.22 207.32999999999998 L 69.11 138.22 A 69.11 69.11 0 0 0 138.22 207.32999999999998" fill="#fff7fc"/><path d="M 138.22 207.32999999999998 A 69.11 69.11 0 0 1  207.32999999999998 138.22 L 138.22 207.32999999999998 A 69.11 69.11 0 0 0 207.32999999999998 138.22" fill="#fef6f9"/><path d="M 207.33 138.22 A 69.11 69.11 0 0 1  276.44 207.32999999999998 L 207.33 138.22 A 69.11 69.11 0 0 0 276.44 207.32999999999998" fill="#fef7fa"/><path d="M 345.56 138.22 A 69.11 69.11 0 0 1  414.67 207.32999999999998 L 345.56 138.22 A 69.11 69.11 0 0 0 414.67 207.32999999999998" fill="#ffffff"/><rect x="483.7777777777778" y="138.22222222222223" width="69.11111111111111" height="69.11111111111111" fill="#ffffff"/><path d="M 483.78 138.22 A 34.56 34.56 0 0 1  518.3399999999999 172.78 L 483.78 138.22 A 34.56 34.56 0 0 0 518.3399999999999 172.78" fill="#ffe0f5"/><path d="M 518.33 172.78 A 34.56 34.56 0 0 1  552.8900000000001 207.34 L 518.33 172.78 A 34.56 34.56 0 0 0 552.8900000000001 207.34" fill="#ffe7f7"/><path d="M 552.89 207.32999999999998 A 69.11 69.11 0 0 1  622 138.22 L 552.89 207.32999999999998 A 69.11 69.11 0 0 0 622 138.22" fill="#ffc8ed"/><path d="M 691.11 138.22 A 69.11 69.11 0 0 1  760.22 207.32999999999998 L 691.11 138.22 A 69.11 69.11 0 0 0 760.22 207.32999999999998" fill="#fef8fa"/><path d="M 345.56 207.33 A 69.11 69.11 0 0 1  414.67 276.44 L 345.56 207.33 A 69.11 69.11 0 0 0 414.67 276.44" fill="#fefafc"/><path d="M 69.11 345.55 A 69.11 69.11 0 0 1  138.22 276.44 L 69.11 345.55 A 69.11 69.11 0 0 0 138.22 276.44" fill="#fff0fa"/><path d="M 138.22 345.55 A 69.11 69.11 0 0 1  207.32999999999998 276.44 L 138.22 345.55 A 69.11 69.11 0 0 0 207.32999999999998 276.44" fill="#fffafd"/><path d="M 483.78 276.44 A 69.11 69.11 0 0 1  552.89 345.55 L 483.78 276.44 A 69.11 69.11 0 0 0 552.89 345.55" fill="#ffe7f7"/><path d="M 691.11 276.44 A 69.11 69.11 0 0 1  760.22 345.55 L 691.11 276.44 A 69.11 69.11 0 0 0 760.22 345.55" fill="#fef9fb"/><path d="M 0 414.67 A 69.11 69.11 0 0 1  69.11 345.56 L 0 414.67 A 69.11 69.11 0 0 0 69.11 345.56" fill="#ffe6f7"/><rect x="69.11111111111111" y="345.55555555555554" width="69.11111111111111" height="69.11111111111111" fill="#ffffff"/><path d="M 69.11 345.56 A 34.56 34.56 0 0 1  103.67 380.12 L 69.11 345.56 A 34.56 34.56 0 0 0 103.67 380.12" fill="#fffdfd"/><path d="M 103.67 345.56 A 34.56 34.56 0 0 1  138.23000000000002 380.12 L 103.67 345.56 A 34.56 34.56 0 0 0 138.23000000000002 380.12" fill="#ffd6f2"/><path d="M 69.11 414.67 A 34.56 34.56 0 0 1  103.67 380.11 L 69.11 414.67 A 34.56 34.56 0 0 0 103.67 380.11" fill="#ffc3eb"/><rect x="207.33333333333334" y="345.55555555555554" width="69.11111111111111" height="69.11111111111111" fill="#ffffff"/><path d="M 207.33 380.12 A 34.56 34.56 0 0 1  241.89000000000001 345.56 L 207.33 380.12 A 34.56 34.56 0 0 0 241.89000000000001 345.56" fill="#ffc6ec"/><path d="M 207.33 380.11 A 34.56 34.56 0 0 1  241.89000000000001 414.67 L 207.33 380.11 A 34.56 34.56 0 0 0 241.89000000000001 414.67" fill="#ffd6f2"/><rect x="276.44444444444446" y="345.55555555555554" width="69.11111111111111" height="69.11111111111111" fill="#ffffff"/><path d="M 276.44 380.12 A 34.56 34.56 0 0 1  311 345.56 L 276.44 380.12 A 34.56 34.56 0 0 0 311 345.56" fill="#fffefe"/><path d="M 311 380.12 A 34.56 34.56 0 0 1  345.56 345.56 L 311 380.12 A 34.56 34.56 0 0 0 345.56 345.56" fill="#fef9fb"/><path d="M 414.67 414.67 A 69.11 69.11 0 0 1  483.78000000000003 345.56 L 414.67 414.67 A 69.11 69.11 0 0 0 483.78000000000003 345.56" fill="#ffd5f1"/><path d="M 552.89 414.67 A 69.11 69.11 0 0 1  622 345.56 L 552.89 414.67 A 69.11 69.11 0 0 0 622 345.56" fill="#fffbfe"/><rect x="622" y="345.55555555555554" width="69.11111111111111" height="69.11111111111111" fill="#ffffff"/><path d="M 656.56 380.12 A 34.56 34.56 0 0 1  691.1199999999999 345.56 L 656.56 380.12 A 34.56 34.56 0 0 0 691.1199999999999 345.56" fill="#fef8fb"/><path d="M 622 414.67 A 34.56 34.56 0 0 1  656.56 380.11 L 622 414.67 A 34.56 34.56 0 0 0 656.56 380.11" fill="#fff4fb"/><path d="M 691.11 345.56 A 69.11 69.11 0 0 1  760.22 414.67 L 691.11 345.56 A 69.11 69.11 0 0 0 760.22 414.67" fill="#fef8fb"/><path d="M 760.22 414.67 A 69.11 69.11 0 0 1  829.33 345.56 L 760.22 414.67 A 69.11 69.11 0 0 0 829.33 345.56" fill="#fef8fa"/><path d="M 0 414.67 A 69.11 69.11 0 0 1  69.11 483.78000000000003 L 0 414.67 A 69.11 69.11 0 0 0 69.11 483.78000000000003" fill="#fffcfd"/><path d="M 69.11 414.67 A 69.11 69.11 0 0 1  138.22 483.78000000000003 L 69.11 414.67 A 69.11 69.11 0 0 0 138.22 483.78000000000003" fill="#ffdef4"/><rect x="138.22222222222223" y="414.6666666666667" width="69.11111111111111" height="69.11111111111111" fill="#ffffff"/><path d="M 138.22 449.23 A 34.56 34.56 0 0 1  172.78 414.67 L 138.22 449.23 A 34.56 34.56 0 0 0 172.78 414.67" fill="#fef8fa"/><path d="M 138.22 483.78000000000003 A 34.56 34.56 0 0 1  172.78 449.22 L 138.22 483.78000000000003 A 34.56 34.56 0 0 0 172.78 449.22" fill="#fef7fa"/><path d="M 207.33 414.67 A 69.11 69.11 0 0 1  276.44 483.78000000000003 L 207.33 414.67 A 69.11 69.11 0 0 0 276.44 483.78000000000003" fill="#ffcaee"/><path d="M 345.56 414.67 A 69.11 69.11 0 0 1  414.67 483.78000000000003 L 345.56 414.67 A 69.11 69.11 0 0 0 414.67 483.78000000000003" fill="#fffbfc"/><path d="M 483.78 483.78000000000003 A 69.11 69.11 0 0 1  552.89 414.67 L 483.78 483.78000000000003 A 69.11 69.11 0 0 0 552.89 414.67" fill="#fff6fc"/><path d="M 552.89 414.67 A 69.11 69.11 0 0 1  622 483.78000000000003 L 552.89 414.67 A 69.11 69.11 0 0 0 622 483.78000000000003" fill="#ffc3eb"/><path d="M 691.11 483.78000000000003 A 69.11 69.11 0 0 1  760.22 414.67 L 691.11 483.78000000000003 A 69.11 69.11 0 0 0 760.22 414.67" fill="#fffcfd"/><path d="M 760.22 414.67 A 69.11 69.11 0 0 1  829.33 483.78000000000003 L 760.22 414.67 A 69.11 69.11 0 0 0 829.33 483.78000000000003" fill="#ffe8f7"/><path d="M 0 483.78 A 69.11 69.11 0 0 1  69.11 552.89 L 0 483.78 A 69.11 69.11 0 0 0 69.11 552.89" fill="#ffeef9"/><path d="M 69.11 552.89 A 69.11 69.11 0 0 1  138.22 483.78 L 69.11 552.89 A 69.11 69.11 0 0 0 138.22 483.78" fill="#fff3fb"/><path d="M 138.22 552.89 A 69.11 69.11 0 0 1  207.32999999999998 483.78 L 138.22 552.89 A 69.11 69.11 0 0 0 207.32999999999998 483.78" fill="#ffd9f3"/><path d="M 207.33 552.89 A 69.11 69.11 0 0 1  276.44 483.78 L 207.33 552.89 A 69.11 69.11 0 0 0 276.44 483.78" fill="#fff9fd"/><path d="M 276.44 552.89 A 69.11 69.11 0 0 1  345.55 483.78 L 276.44 552.89 A 69.11 69.11 0 0 0 345.55 483.78" fill="#ffd1f0"/><path d="M 345.56 483.78 A 69.11 69.11 0 0 1  414.67 552.89 L 345.56 483.78 A 69.11 69.11 0 0 0 414.67 552.89" fill="#fef9fb"/><path d="M 414.67 552.89 A 69.11 69.11 0 0 1  483.78000000000003 483.78 L 414.67 552.89 A 69.11 69.11 0 0 0 483.78000000000003 483.78" fill="#fff9fd"/><path d="M 483.78 483.78 A 69.11 69.11 0 0 1  552.89 552.89 L 483.78 483.78 A 69.11 69.11 0 0 0 552.89 552.89" fill="#fef6f9"/><path d="M 552.89 483.78 A 69.11 69.11 0 0 1  622 552.89 L 552.89 483.78 A 69.11 69.11 0 0 0 622 552.89" fill="#fffafd"/><path d="M 622 483.78 A 69.11 69.11 0 0 1  691.11 552.89 L 622 483.78 A 69.11 69.11 0 0 0 691.11 552.89" fill="#fffdff"/><path d="M 691.11 552.89 A 69.11 69.11 0 0 1  760.22 483.78 L 691.11 552.89 A 69.11 69.11 0 0 0 760.22 483.78" fill="#fef9fb"/><path d="M 760.22 552.89 A 69.11 69.11 0 0 1  829.33 483.78 L 760.22 552.89 A 69.11 69.11 0 0 0 829.33 483.78" fill="#fffefe"/><rect x="0" y="552.8888888888889" width="69.11111111111111" height="69.11111111111111" fill="#ffffff"/><path d="M 0 587.45 A 34.56 34.56 0 0 1  34.56 552.89 L 0 587.45 A 34.56 34.56 0 0 0 34.56 552.89" fill="#fffbfc"/><path d="M 34.56 587.45 A 34.56 34.56 0 0 1  69.12 552.89 L 34.56 587.45 A 34.56 34.56 0 0 0 69.12 552.89" fill="#ffd8f2"/><path d="M 0 587.44 A 34.56 34.56 0 0 1  34.56 622 L 0 587.44 A 34.56 34.56 0 0 0 34.56 622" fill="#ffdef4"/><path d="M 34.56 622 A 34.56 34.56 0 0 1  69.12 587.44 L 34.56 622 A 34.56 34.56 0 0 0 69.12 587.44" fill="#ffdff5"/><path d="M 69.11 622 A 69.11 69.11 0 0 1  138.22 552.89 L 69.11 622 A 69.11 69.11 0 0 0 138.22 552.89" fill="#fef9fb"/><path d="M 138.22 552.89 A 69.11 69.11 0 0 1  207.32999999999998 622 L 138.22 552.89 A 69.11 69.11 0 0 0 207.32999999999998 622" fill="#ffdaf3"/><rect x="207.33333333333334" y="552.8888888888889" width="69.11111111111111" height="69.11111111111111" fill="#ffffff"/><path d="M 207.33 587.45 A 34.56 34.56 0 0 1  241.89000000000001 552.89 L 207.33 587.45 A 34.56 34.56 0 0 0 241.89000000000001 552.89" fill="#fffdfe"/><path d="M 241.89 552.89 A 34.56 34.56 0 0 1  276.45 587.45 L 241.89 552.89 A 34.56 34.56 0 0 0 276.45 587.45" fill="#fff9fd"/><path d="M 207.33 587.44 A 34.56 34.56 0 0 1  241.89000000000001 622 L 207.33 587.44 A 34.56 34.56 0 0 0 241.89000000000001 622" fill="#ffd8f2"/><path d="M 241.89 622 A 34.56 34.56 0 0 1  276.45 587.44 L 241.89 622 A 34.56 34.56 0 0 0 276.45 587.44" fill="#fffdfe"/><path d="M 276.44 552.89 A 69.11 69.11 0 0 1  345.55 622 L 276.44 552.89 A 69.11 69.11 0 0 0 345.55 622" fill="#fef9fb"/><path d="M 345.56 552.89 A 69.11 69.11 0 0 1  414.67 622 L 345.56 552.89 A 69.11 69.11 0 0 0 414.67 622" fill="#fef7fa"/><rect x="414.6666666666667" y="552.8888888888889" width="69.11111111111111" height="69.11111111111111" fill="#ffffff"/><path d="M 414.67 552.89 A 34.56 34.56 0 0 1  449.23 587.45 L 414.67 552.89 A 34.56 34.56 0 0 0 449.23 587.45" fill="#ffffff"/><path d="M 449.22 587.45 A 34.56 34.56 0 0 1  483.78000000000003 552.89 L 449.22 587.45 A 34.56 34.56 0 0 0 483.78000000000003 552.89" fill="#ffe7f7"/><path d="M 414.67 587.44 A 34.56 34.56 0 0 1  449.23 622 L 414.67 587.44 A 34.56 34.56 0 0 0 449.23 622" fill="#ffdcf3"/><path d="M 449.22 622 A 34.56 34.56 0 0 1  483.78000000000003 587.44 L 449.22 622 A 34.56 34.56 0 0 0 483.78000000000003 587.44" fill="#fefafc"/><path d="M 483.78 622 A 69.11 69.11 0 0 1  552.89 552.89 L 483.78 622 A 69.11 69.11 0 0 0 552.89 552.89" fill="#fffbfd"/><path d="M 552.89 552.89 A 69.11 69.11 0 0 1  622 622 L 552.89 552.89 A 69.11 69.11 0 0 0 622 622" fill="#fef9fb"/><path d="M 622 552.89 A 69.11 69.11 0 0 1  691.11 622 L 622 552.89 A 69.11 69.11 0 0 0 691.11 622" fill="#fff9fd"/><path d="M 691.11 552.89 A 69.11 69.11 0 0 1  760.22 622 L 691.11 552.89 A 69.11 69.11 0 0 0 760.22 622" fill="#fffdfe"/><rect x="760.2222222222223" y="552.8888888888889" width="69.11111111111111" height="69.11111111111111" fill="#ffffff"/><path d="M 760.22 587.45 A 34.56 34.56 0 0 1  794.78 552.89 L 760.22 587.45 A 34.56 34.56 0 0 0 794.78 552.89" fill="#ffd9f3"/><path d="M 794.78 587.45 A 34.56 34.56 0 0 1  829.3399999999999 552.89 L 794.78 587.45 A 34.56 34.56 0 0 0 829.3399999999999 552.89" fill="#ffd3f1"/><path d="M 760.22 622 A 34.56 34.56 0 0 1  794.78 587.44 L 760.22 622 A 34.56 34.56 0 0 0 794.78 587.44" fill="#fef9fb"/><path d="M 794.78 622 A 34.56 34.56 0 0 1  829.3399999999999 587.44 L 794.78 622 A 34.56 34.56 0 0 0 829.3399999999999 587.44" fill="#fef8fa"/></g></svg>